<svg viewBox="0 0 168 42" width="100"
     xmlns="http://www.w3.org/2000/svg">
    <path
            d="M23.52-5.46L29.1-5.46 41.16-26.88 41.46-26.88 41.46 0 49.56 0 49.56-42 41.34-42 26.82-15.18 26.58-15.18 12.18-42 4.08-42ZM4.08 0L11.94 0 11.94-16.5 4.08-31.26ZM65.82-35.52L65.82-42 57.66-42 57.66-35.52ZM57.66 0L65.76 0 65.76-30 57.66-30ZM102.36 0L110.28 0 110.28-42 102.54-42 102.54-13.08 102.24-13.08 81.96-42 73.62-42ZM73.98 0L81.84 0 81.84-20.58 73.98-31.8ZM126.54-35.52L126.54-42 118.38-42 118.38-35.52ZM118.38 0L126.48 0 126.48-30 118.38-30ZM146.52-18.12L164.34-18.12 164.34 0 172.44 0 172.44-42 164.34-42 164.34-25.8 146.52-25.8ZM134.7 0L142.8 0 142.8-42 134.7-42Z"
            fill="#000"
            transform="translate(-4.079999923706055, 42)"/>
</svg>
